<?xml version="1.0" encoding="UTF-8"?>
<!DOCTYPE svg PUBLIC "-//W3C//DTD SVG 1.1//EN" "http://www.w3.org/Graphics/SVG/1.1/DTD/svg11.dtd">
<svg xmlns="http://www.w3.org/2000/svg" version="1.1" width="127px" height="121px" style="shape-rendering:geometricPrecision; text-rendering:geometricPrecision; image-rendering:optimizeQuality; fill-rule:evenodd; clip-rule:evenodd" xmlns:xlink="http://www.w3.org/1999/xlink">
<g><path style="opacity:1" fill="#f8988e" d="M 72.5,35.5 C 72.2322,33.901 72.5655,32.5676 73.5,31.5C 74.404,30.791 74.7373,29.791 74.5,28.5C 76.0265,27.5081 76.6932,26.0081 76.5,24C 76.5418,16.5535 73.8752,15.3868 68.5,20.5C 64.6771,18.0848 60.6771,17.4181 56.5,18.5C 56.4729,20.1993 55.8062,21.5326 54.5,22.5C 54.5654,22.9382 54.3988,23.2716 54,23.5C 53.6667,22.8333 53.3333,22.1667 53,21.5C 52.3333,22.8333 51.6667,22.8333 51,21.5C 50.5038,23.0349 50.6705,24.5349 51.5,26C 51.1667,26.5 50.8333,27 50.5,27.5C 49.7492,26.624 49.2492,25.624 49,24.5C 46.9784,26.3934 45.8118,28.7267 45.5,31.5C 44.7043,33.8357 43.0377,35.169 40.5,35.5C 44.806,28.1839 49.1393,20.8506 53.5,13.5C 58.9152,9.18832 64.9152,8.35499 71.5,11C 79.1062,18.8877 79.4395,27.0543 72.5,35.5 Z"/></g>
<g><path style="opacity:1" fill="#fd9189" d="M 74.5,28.5 C 73.0337,27.653 72.2004,26.3197 72,24.5C 70,25.1667 68.6667,26.5 68,28.5C 67.3076,27.9747 66.8076,27.3081 66.5,26.5C 68.0229,21.8468 66.8562,20.8468 63,23.5C 61.779,22.7282 60.779,21.7282 60,20.5C 58.0253,21.7495 56.8586,23.0828 56.5,24.5C 55.8182,23.7573 55.1515,23.0906 54.5,22.5C 55.8062,21.5326 56.4729,20.1993 56.5,18.5C 60.6771,17.4181 64.6771,18.0848 68.5,20.5C 73.8752,15.3868 76.5418,16.5535 76.5,24C 76.6932,26.0081 76.0265,27.5081 74.5,28.5 Z"/></g>
<g><path style="opacity:1" fill="#fd8985" d="M 74.5,28.5 C 74.7373,29.791 74.404,30.791 73.5,31.5C 73.631,30.7611 73.4643,30.0944 73,29.5C 70.0368,30.5286 67.0368,31.5286 64,32.5C 62.469,31.7827 61.1357,30.7827 60,29.5C 58.1551,30.7558 56.1551,31.7558 54,32.5C 52.416,32.0116 51.2494,31.0116 50.5,29.5C 49.1585,31.0049 47.4918,31.6715 45.5,31.5C 45.8118,28.7267 46.9784,26.3934 49,24.5C 49.2492,25.624 49.7492,26.624 50.5,27.5C 50.8333,27 51.1667,26.5 51.5,26C 50.6705,24.5349 50.5038,23.0349 51,21.5C 51.6667,22.8333 52.3333,22.8333 53,21.5C 53.3333,22.1667 53.6667,22.8333 54,23.5C 54.3988,23.2716 54.5654,22.9382 54.5,22.5C 55.1515,23.0906 55.8182,23.7573 56.5,24.5C 56.8586,23.0828 58.0253,21.7495 60,20.5C 60.779,21.7282 61.779,22.7282 63,23.5C 66.8562,20.8468 68.0229,21.8468 66.5,26.5C 66.8076,27.3081 67.3076,27.9747 68,28.5C 68.6667,26.5 70,25.1667 72,24.5C 72.2004,26.3197 73.0337,27.653 74.5,28.5 Z"/></g>
<g><path style="opacity:1" fill="#fc7f81" d="M 73.5,31.5 C 72.5655,32.5676 72.2322,33.901 72.5,35.5C 70.668,39.8362 68.3346,43.8362 65.5,47.5C 65.5,45.8333 65.5,44.1667 65.5,42.5C 69.4161,40.8997 69.4161,39.233 65.5,37.5C 59.4779,38.1229 53.4779,38.7896 47.5,39.5C 46.3348,38.5089 45.1681,37.5089 44,36.5C 42.415,37.0439 40.915,37.7106 39.5,38.5C 39.5569,37.391 39.8902,36.391 40.5,35.5C 43.0377,35.169 44.7043,33.8357 45.5,31.5C 47.4918,31.6715 49.1585,31.0049 50.5,29.5C 51.2494,31.0116 52.416,32.0116 54,32.5C 56.1551,31.7558 58.1551,30.7558 60,29.5C 61.1357,30.7827 62.469,31.7827 64,32.5C 67.0368,31.5286 70.0368,30.5286 73,29.5C 73.4643,30.0944 73.631,30.7611 73.5,31.5 Z"/></g>
<g><path style="opacity:1" fill="#fb787e" d="M 65.5,42.5 C 64.7784,42.0825 64.2784,41.4158 64,40.5C 57.8863,41.2279 51.7196,41.8946 45.5,42.5C 43.3543,41.1064 41.021,40.4397 38.5,40.5C 38.0246,43.3126 39.0246,45.3126 41.5,46.5C 41.762,47.9778 41.4287,49.3112 40.5,50.5C 39.1076,49.3947 37.941,48.0614 37,46.5C 35.7308,47.9047 35.2308,49.5714 35.5,51.5C 33.4862,51.3915 31.8195,52.0582 30.5,53.5C 32.7487,47.9946 35.7487,42.9946 39.5,38.5C 40.915,37.7106 42.415,37.0439 44,36.5C 45.1681,37.5089 46.3348,38.5089 47.5,39.5C 53.4779,38.7896 59.4779,38.1229 65.5,37.5C 69.4161,39.233 69.4161,40.8997 65.5,42.5 Z"/></g>
<g><path style="opacity:1" fill="#fc727a" d="M 65.5,42.5 C 65.5,44.1667 65.5,45.8333 65.5,47.5C 63.668,51.8362 61.3346,55.8362 58.5,59.5C 58.5,58.1667 58.5,56.8333 58.5,55.5C 57.2935,54.1196 57.6269,52.9529 59.5,52C 57.6992,51.6827 57.3659,51.016 58.5,50C 57.552,49.5172 56.552,49.3505 55.5,49.5C 55.5386,48.2438 55.0386,47.2438 54,46.5C 52.414,47.376 50.914,48.376 49.5,49.5C 47.4123,47.1351 44.7456,46.1351 41.5,46.5C 39.0246,45.3126 38.0246,43.3126 38.5,40.5C 41.021,40.4397 43.3543,41.1064 45.5,42.5C 51.7196,41.8946 57.8863,41.2279 64,40.5C 64.2784,41.4158 64.7784,42.0825 65.5,42.5 Z"/></g>
<g><path style="opacity:1" fill="#f5707c" d="M 98.5,55.5 C 96.0876,55.756 94.4209,54.756 93.5,52.5C 93.1667,53.1667 92.8333,53.8333 92.5,54.5C 90.6503,53.7582 89.9836,52.7582 90.5,51.5C 86.9226,54.475 83.7559,54.1417 81,50.5C 79.4152,51.3757 78.4152,52.7091 78,54.5C 75.4428,53.3543 74.1095,54.3543 74,57.5C 73.3292,58.2524 72.4959,58.5858 71.5,58.5C 75.7286,47.2526 83.3952,44.086 94.5,49C 96.2318,50.9719 97.5652,53.1386 98.5,55.5 Z"/></g>
<g><path style="opacity:1" fill="#fd6774" d="M 55.5,49.5 C 56.552,49.3505 57.552,49.5172 58.5,50C 57.3659,51.016 57.6992,51.6827 59.5,52C 57.6269,52.9529 57.2935,54.1196 58.5,55.5C 57.6851,56.4293 56.8518,57.4293 56,58.5C 52.5268,57.9566 49.1935,56.9566 46,55.5C 43.4091,57.5026 41.2424,56.8359 39.5,53.5C 40.5676,52.5655 41.901,52.2322 43.5,52.5C 43.3433,51.1266 43.51,49.7932 44,48.5C 44.9804,50.2594 45.647,51.9261 46,53.5C 48.7171,50.5575 51.8837,49.2241 55.5,49.5 Z"/></g>
<g><path style="opacity:1" fill="#fa6071" d="M 98.5,55.5 C 99.6408,58.6399 99.8075,61.9733 99,65.5C 95.7257,71.7271 92.2257,77.7271 88.5,83.5C 88.4679,80.9242 89.1346,78.5909 90.5,76.5C 92.5992,75.1851 92.9326,73.5184 91.5,71.5C 92.9311,71.1193 93.7645,70.1193 94,68.5C 94.3333,68.8333 94.6667,69.1667 95,69.5C 95.4935,67.8659 95.6602,66.1992 95.5,64.5C 96.1174,64.6107 96.6174,64.944 97,65.5C 99.2371,61.8546 98.0704,59.8546 93.5,59.5C 91.6175,60.0243 89.7842,60.6909 88,61.5C 84.6641,59.8562 81.6641,60.1895 79,62.5C 78.0255,60.1224 77.3589,60.4557 77,63.5C 75.9887,62.6634 74.8221,62.33 73.5,62.5C 73.5,63.5 73.5,64.5 73.5,65.5C 70.8456,62.9821 69.1789,63.6488 68.5,67.5C 67.8333,67.5 67.1667,67.5 66.5,67.5C 67.4097,64.0078 69.0764,61.0078 71.5,58.5C 72.4959,58.5858 73.3292,58.2524 74,57.5C 74.1095,54.3543 75.4428,53.3543 78,54.5C 78.4152,52.7091 79.4152,51.3757 81,50.5C 83.7559,54.1417 86.9226,54.475 90.5,51.5C 89.9836,52.7582 90.6503,53.7582 92.5,54.5C 92.8333,53.8333 93.1667,53.1667 93.5,52.5C 94.4209,54.756 96.0876,55.756 98.5,55.5 Z"/></g>
<g><path style="opacity:1" fill="#fa5e71" d="M 39.5,53.5 C 41.2424,56.8359 43.4091,57.5026 46,55.5C 49.1935,56.9566 52.5268,57.9566 56,58.5C 56.8518,57.4293 57.6851,56.4293 58.5,55.5C 58.5,56.8333 58.5,58.1667 58.5,59.5C 57.2583,63.6553 55.2583,67.322 52.5,70.5C 52.8504,67.5466 51.8504,65.2133 49.5,63.5C 51.5189,62.4344 53.5189,61.2677 55.5,60C 52.7222,58.9878 49.7222,58.4878 46.5,58.5C 45.147,59.6853 43.9803,61.0186 43,62.5C 42.3005,60.968 41.1338,59.968 39.5,59.5C 36.9665,60.7883 34.4665,60.7883 32,59.5C 31.5065,61.1341 31.3398,62.8008 31.5,64.5C 31.5,64.8333 31.5,65.1667 31.5,65.5C 29.7287,66.8758 28.3954,68.7092 27.5,71C 28.3195,72.8003 28.9862,74.6336 29.5,76.5C 23.6424,70.3356 23.3091,64.0023 28.5,57.5C 30.0481,57.1788 30.7148,56.1788 30.5,54.5C 31.5,54.5 32.5,54.5 33.5,54.5C 33.2907,56.7144 34.124,58.381 36,59.5C 37.7491,57.7773 38.9158,55.7773 39.5,53.5 Z"/></g>
<g><path style="opacity:1" fill="#fa6874" d="M 41.5,46.5 C 44.7456,46.1351 47.4123,47.1351 49.5,49.5C 50.914,48.376 52.414,47.376 54,46.5C 55.0386,47.2438 55.5386,48.2438 55.5,49.5C 51.8837,49.2241 48.7171,50.5575 46,53.5C 45.647,51.9261 44.9804,50.2594 44,48.5C 43.51,49.7932 43.3433,51.1266 43.5,52.5C 41.901,52.2322 40.5676,52.5655 39.5,53.5C 38.9158,55.7773 37.7491,57.7773 36,59.5C 34.124,58.381 33.2907,56.7144 33.5,54.5C 32.5,54.5 31.5,54.5 30.5,54.5C 30.7148,56.1788 30.0481,57.1788 28.5,57.5C 28.6596,55.847 29.3263,54.5137 30.5,53.5C 31.8195,52.0582 33.4862,51.3915 35.5,51.5C 35.2308,49.5714 35.7308,47.9047 37,46.5C 37.941,48.0614 39.1076,49.3947 40.5,50.5C 41.4287,49.3112 41.762,47.9778 41.5,46.5 Z"/></g>
<g><path style="opacity:1" fill="#fd5b6e" d="M 49.5,63.5 C 43.6341,65.7103 37.6341,66.0436 31.5,64.5C 31.3398,62.8008 31.5065,61.1341 32,59.5C 34.4665,60.7883 36.9665,60.7883 39.5,59.5C 41.1338,59.968 42.3005,60.968 43,62.5C 43.9803,61.0186 45.147,59.6853 46.5,58.5C 49.7222,58.4878 52.7222,58.9878 55.5,60C 53.5189,61.2677 51.5189,62.4344 49.5,63.5 Z"/></g>
<g><path style="opacity:1" fill="#fd5a6d" d="M 95.5,64.5 C 94.7784,64.9175 94.2784,65.5842 94,66.5C 91.7939,65.6479 89.6272,64.6479 87.5,63.5C 85.3728,64.6479 83.2061,65.6479 81,66.5C 80.3109,65.6433 79.4776,64.9767 78.5,64.5C 76.9291,65.3094 75.2624,65.6427 73.5,65.5C 73.5,64.5 73.5,63.5 73.5,62.5C 74.8221,62.33 75.9887,62.6634 77,63.5C 77.3589,60.4557 78.0255,60.1224 79,62.5C 81.6641,60.1895 84.6641,59.8562 88,61.5C 89.7842,60.6909 91.6175,60.0243 93.5,59.5C 98.0704,59.8546 99.2371,61.8546 97,65.5C 96.6174,64.944 96.1174,64.6107 95.5,64.5 Z"/></g>
<g><path style="opacity:1" fill="#fc4f68" d="M 31.5,65.5 C 34.3915,66.4025 37.3915,66.7359 40.5,66.5C 40.3243,70.1921 41.9909,72.1921 45.5,72.5C 45.7394,74.4672 45.4061,76.3005 44.5,78C 41.5682,78.9533 38.5682,79.4533 35.5,79.5C 33.1815,79.0075 31.1815,78.0075 29.5,76.5C 28.9862,74.6336 28.3195,72.8003 27.5,71C 28.3954,68.7092 29.7287,66.8758 31.5,65.5 Z"/></g>
<g><path style="opacity:1" fill="#fd546a" d="M 73.5,65.5 C 75.2624,65.6427 76.9291,65.3094 78.5,64.5C 79.4776,64.9767 80.3109,65.6433 81,66.5C 83.2061,65.6479 85.3728,64.6479 87.5,63.5C 89.6272,64.6479 91.7939,65.6479 94,66.5C 94.2784,65.5842 94.7784,64.9175 95.5,64.5C 95.6602,66.1992 95.4935,67.8659 95,69.5C 94.6667,69.1667 94.3333,68.8333 94,68.5C 93.7645,70.1193 92.9311,71.1193 91.5,71.5C 91.6309,70.6236 91.2975,69.9569 90.5,69.5C 87.1814,72.69 85.0147,72.0233 84,67.5C 82.9805,68.6872 81.8139,69.6872 80.5,70.5C 78.6837,69.2651 77.017,69.2651 75.5,70.5C 74.5041,70.4142 73.6708,70.7476 73,71.5C 71.5084,70.0797 70.0084,68.7464 68.5,67.5C 69.1789,63.6488 70.8456,62.9821 73.5,65.5 Z"/></g>
<g><path style="opacity:1" fill="#f8546b" d="M 49.5,63.5 C 51.8504,65.2133 52.8504,67.5466 52.5,70.5C 49.2727,78.442 43.6061,81.442 35.5,79.5C 38.5682,79.4533 41.5682,78.9533 44.5,78C 45.4061,76.3005 45.7394,74.4672 45.5,72.5C 41.9909,72.1921 40.3243,70.1921 40.5,66.5C 37.3915,66.7359 34.3915,66.4025 31.5,65.5C 31.5,65.1667 31.5,64.8333 31.5,64.5C 37.6341,66.0436 43.6341,65.7103 49.5,63.5 Z"/></g>
<g><path style="opacity:1" fill="#f85068" d="M 66.5,67.5 C 67.1667,67.5 67.8333,67.5 68.5,67.5C 70.0084,68.7464 71.5084,70.0797 73,71.5C 73.6708,70.7476 74.5041,70.4142 75.5,70.5C 76.4408,72.0495 77.1075,73.7162 77.5,75.5C 76.0241,75.8885 74.6908,75.8885 73.5,75.5C 71.9826,75.5106 70.8159,76.1772 70,77.5C 69.7811,76.062 69.2811,74.7287 68.5,73.5C 66.5914,74.3482 64.5914,74.6816 62.5,74.5C 62.7148,76.1788 62.0481,77.1788 60.5,77.5C 62.0002,73.827 64.0002,70.4937 66.5,67.5 Z"/></g>
<g><path style="opacity:1" fill="#fe4d66" d="M 91.5,71.5 C 92.9326,73.5184 92.5992,75.1851 90.5,76.5C 88.8002,76.3739 87.3002,75.7073 86,74.5C 84.7651,75.6155 83.5984,75.6155 82.5,74.5C 81.1841,77.028 80.0174,77.028 79,74.5C 78.6174,75.056 78.1174,75.3893 77.5,75.5C 77.1075,73.7162 76.4408,72.0495 75.5,70.5C 77.017,69.2651 78.6837,69.2651 80.5,70.5C 81.8139,69.6872 82.9805,68.6872 84,67.5C 85.0147,72.0233 87.1814,72.69 90.5,69.5C 91.2975,69.9569 91.6309,70.6236 91.5,71.5 Z"/></g>
<g><path style="opacity:1" fill="#f94664" d="M 73.5,75.5 C 71.9909,79.4326 69.6576,80.0993 66.5,77.5C 63.5588,78.8628 60.8921,80.5295 58.5,82.5C 58.5394,83.5832 58.8728,84.5832 59.5,85.5C 58.3698,86.6223 57.7031,87.9557 57.5,89.5C 55.8333,90.1667 54.1667,90.8333 52.5,91.5C 54.6643,86.4997 57.331,81.833 60.5,77.5C 62.0481,77.1788 62.7148,76.1788 62.5,74.5C 64.5914,74.6816 66.5914,74.3482 68.5,73.5C 69.2811,74.7287 69.7811,76.062 70,77.5C 70.8159,76.1772 71.9826,75.5106 73.5,75.5 Z"/></g>
<g><path style="opacity:1" fill="#fa4261" d="M 77.5,75.5 C 78.1174,75.3893 78.6174,75.056 79,74.5C 80.0174,77.028 81.1841,77.028 82.5,74.5C 83.5984,75.6155 84.7651,75.6155 86,74.5C 87.3002,75.7073 88.8002,76.3739 90.5,76.5C 89.1346,78.5909 88.4679,80.9242 88.5,83.5C 84.4164,91.3367 80.0831,99.0034 75.5,106.5C 76.3331,104.248 76.3331,102.081 75.5,100C 76.448,99.5172 77.448,99.3505 78.5,99.5C 78.5,98.1667 78.5,96.8333 78.5,95.5C 79.1174,95.6107 79.6174,95.944 80,96.5C 80.0367,94.0261 80.87,92.0261 82.5,90.5C 84.0011,87.5531 83.1677,85.2198 80,83.5C 74.5095,84.7654 69.0095,84.7654 63.5,83.5C 62.5,80.8333 61.5,80.8333 60.5,83.5C 59.8165,83.1373 59.1499,82.8039 58.5,82.5C 60.8921,80.5295 63.5588,78.8628 66.5,77.5C 69.6576,80.0993 71.9909,79.4326 73.5,75.5C 74.6908,75.8885 76.0241,75.8885 77.5,75.5 Z"/></g>
<g><path style="opacity:1" fill="#fe3b5e" d="M 82.5,90.5 C 82.631,89.7611 82.4643,89.0944 82,88.5C 76.0923,89.3271 70.4256,89.6604 65,89.5C 64.6924,88.6919 64.1924,88.0253 63.5,87.5C 61.6565,89.4604 59.6565,90.127 57.5,89.5C 57.7031,87.9557 58.3698,86.6223 59.5,85.5C 58.8728,84.5832 58.5394,83.5832 58.5,82.5C 59.1499,82.8039 59.8165,83.1373 60.5,83.5C 61.5,80.8333 62.5,80.8333 63.5,83.5C 69.0095,84.7654 74.5095,84.7654 80,83.5C 83.1677,85.2198 84.0011,87.5531 82.5,90.5 Z"/></g>
<g><path style="opacity:1" fill="#f04364" d="M 119.5,105.5 C 119.797,102.276 119.13,99.2761 117.5,96.5C 117.833,95.8333 118.167,95.1667 118.5,94.5C 117.398,93.8243 116.398,93.1577 115.5,92.5C 116.684,91.3121 116.684,90.1455 115.5,89C 111.509,88.0435 107.176,87.7101 102.5,88C 99.7506,89.3462 99.4172,90.6796 101.5,92C 99.8876,92.7203 98.3876,92.5536 97,91.5C 96.6481,93.2475 96.1481,94.9142 95.5,96.5C 94.9084,99.1272 94.5751,101.794 94.5,104.5C 91.7208,93.0825 96.2208,86.4158 108,84.5C 115.909,85.9081 120.742,90.5747 122.5,98.5C 121.942,101.127 120.942,103.46 119.5,105.5 Z"/></g>
<g><path style="opacity:1" fill="#fb3259" d="M 82.5,90.5 C 80.87,92.0261 80.0367,94.0261 80,96.5C 79.6174,95.944 79.1174,95.6107 78.5,95.5C 73.5498,93.7853 68.2164,92.7853 62.5,92.5C 61.6143,93.325 61.281,94.325 61.5,95.5C 60.5244,96.8149 59.5244,98.1482 58.5,99.5C 56.6332,98.2027 56.2998,96.7027 57.5,95C 57.3699,93.9412 56.8699,93.1079 56,92.5C 55.4389,94.7254 54.4389,96.7254 53,98.5C 52.2951,102.289 53.7951,104.622 57.5,105.5C 57.0825,106.222 56.4158,106.722 55.5,107C 56.1258,107.75 56.6258,108.584 57,109.5C 57.7175,108.549 58.5509,108.383 59.5,109C 60.365,110.359 61.365,111.526 62.5,112.5C 54.7805,111.11 50.4472,106.443 49.5,98.5C 49.9394,95.8239 50.9394,93.4905 52.5,91.5C 54.1667,90.8333 55.8333,90.1667 57.5,89.5C 59.6565,90.127 61.6565,89.4604 63.5,87.5C 64.1924,88.0253 64.6924,88.6919 65,89.5C 70.4256,89.6604 76.0923,89.3271 82,88.5C 82.4643,89.0944 82.631,89.7611 82.5,90.5 Z"/></g>
<g><path style="opacity:1" fill="#f6395c" d="M 32.5,104.5 C 33.0768,100.131 32.2435,96.1309 30,92.5C 29.6667,93.1667 29.3333,93.8333 29,94.5C 27.9505,93.4829 26.7839,93.3162 25.5,94C 28.0635,94.763 28.0635,95.263 25.5,95.5C 22.14,94.0885 18.64,93.0885 15,92.5C 13.1978,93.7893 12.0312,95.4559 11.5,97.5C 11.5,98.8333 11.5,100.167 11.5,101.5C 10.5,101.5 9.5,101.5 8.5,101.5C 8.51715,103.565 8.85048,105.565 9.5,107.5C 3.10095,95.2914 6.76762,87.6247 20.5,84.5C 31.7999,87.1291 35.7999,93.7957 32.5,104.5 Z"/></g>
<g><path style="opacity:1" fill="#fc2d58" d="M 32.5,104.5 C 32.573,106.027 31.9063,107.027 30.5,107.5C 30.5,105.5 30.5,103.5 30.5,101.5C 20.1751,102.03 19.8418,100.864 29.5,98C 25.2355,98.0159 21.2355,97.1825 17.5,95.5C 16.5,96.8333 15.5,98.1667 14.5,99.5C 13.4822,98.8075 12.4822,98.1408 11.5,97.5C 12.0312,95.4559 13.1978,93.7893 15,92.5C 18.64,93.0885 22.14,94.0885 25.5,95.5C 28.0635,95.263 28.0635,94.763 25.5,94C 26.7839,93.3162 27.9505,93.4829 29,94.5C 29.3333,93.8333 29.6667,93.1667 30,92.5C 32.2435,96.1309 33.0768,100.131 32.5,104.5 Z"/></g>
<g><path style="opacity:1" fill="#fb2d56" d="M 78.5,95.5 C 78.5,96.8333 78.5,98.1667 78.5,99.5C 77.448,99.3505 76.448,99.5172 75.5,100C 76.3331,102.081 76.3331,104.248 75.5,106.5C 73.1193,110.746 69.4527,112.746 64.5,112.5C 66.2549,111.208 68.2549,110.208 70.5,109.5C 69.7439,107.549 69.4106,105.716 69.5,104C 70.756,103.583 71.4226,102.75 71.5,101.5C 70.6652,98.6323 68.9986,97.6323 66.5,98.5C 64.7988,97.4457 63.1321,96.4457 61.5,95.5C 61.281,94.325 61.6143,93.325 62.5,92.5C 68.2164,92.7853 73.5498,93.7853 78.5,95.5 Z"/></g>
<g><path style="opacity:1" fill="#fc3458" d="M 115.5,92.5 C 114.145,94.6579 112.478,96.6579 110.5,98.5C 109.758,96.8918 109.591,95.2251 110,93.5C 107.841,94.1967 105.674,93.8634 103.5,92.5C 101.155,94.5838 98.4888,95.9172 95.5,96.5C 96.1481,94.9142 96.6481,93.2475 97,91.5C 98.3876,92.5536 99.8876,92.7203 101.5,92C 99.4172,90.6796 99.7506,89.3462 102.5,88C 107.176,87.7101 111.509,88.0435 115.5,89C 116.684,90.1455 116.684,91.3121 115.5,92.5 Z"/></g>
<g><path style="opacity:1" fill="#fb2c56" d="M 115.5,92.5 C 116.398,93.1577 117.398,93.8243 118.5,94.5C 118.167,95.1667 117.833,95.8333 117.5,96.5C 119.13,99.2761 119.797,102.276 119.5,105.5C 117.888,109.488 114.888,111.821 110.5,112.5C 110.881,111.069 111.881,110.236 113.5,110C 112.167,109.333 112.167,108.667 113.5,108C 111.954,106.56 111.121,104.727 111,102.5C 110.439,101.978 109.772,101.645 109,101.5C 105.262,101.653 101.429,101.82 97.5,102C 99.3233,105.539 100.99,109.039 102.5,112.5C 98.5,111.167 95.8333,108.5 94.5,104.5C 94.5751,101.794 94.9084,99.1272 95.5,96.5C 98.4888,95.9172 101.155,94.5838 103.5,92.5C 105.674,93.8634 107.841,94.1967 110,93.5C 109.591,95.2251 109.758,96.8918 110.5,98.5C 112.478,96.6579 114.145,94.6579 115.5,92.5 Z"/></g>
<g><path style="opacity:1" fill="#f82954" d="M 30.5,107.5 C 29.8333,108.833 28.8333,109.833 27.5,110.5C 27.0825,111.222 26.4158,111.722 25.5,112C 21.8333,112.667 18.1667,112.667 14.5,112C 12.3395,111.004 10.6728,109.504 9.5,107.5C 8.85048,105.565 8.51715,103.565 8.5,101.5C 9.5,101.5 10.5,101.5 11.5,101.5C 11.5,100.167 11.5,98.8333 11.5,97.5C 12.4822,98.1408 13.4822,98.8075 14.5,99.5C 15.5,98.1667 16.5,96.8333 17.5,95.5C 21.2355,97.1825 25.2355,98.0159 29.5,98C 19.8418,100.864 20.1751,102.03 30.5,101.5C 30.5,103.5 30.5,105.5 30.5,107.5 Z"/></g>
<g><path style="opacity:1" fill="#fd2953" d="M 61.5,95.5 C 63.1321,96.4457 64.7988,97.4457 66.5,98.5C 68.9986,97.6323 70.6652,98.6323 71.5,101.5C 69.7376,101.643 68.0709,101.309 66.5,100.5C 65.6143,101.325 65.281,102.325 65.5,103.5C 63.1761,103.995 61.0094,103.995 59,103.5C 57.9701,103.836 57.4701,104.503 57.5,105.5C 53.7951,104.622 52.2951,102.289 53,98.5C 54.4389,96.7254 55.4389,94.7254 56,92.5C 56.8699,93.1079 57.3699,93.9412 57.5,95C 56.2998,96.7027 56.6332,98.2027 58.5,99.5C 59.5244,98.1482 60.5244,96.8149 61.5,95.5 Z"/></g>
<g><path style="opacity:1" fill="#fc2953" d="M 110.5,112.5 C 107.939,113.767 105.272,113.767 102.5,112.5C 100.99,109.039 99.3233,105.539 97.5,102C 101.429,101.82 105.262,101.653 109,101.5C 109.772,101.645 110.439,101.978 111,102.5C 111.121,104.727 111.954,106.56 113.5,108C 112.167,108.667 112.167,109.333 113.5,110C 111.881,110.236 110.881,111.069 110.5,112.5 Z"/></g>
<g><path style="opacity:1" fill="#fc1e4f" d="M 27.5,110.5 C 23.1082,111.992 18.7748,111.825 14.5,110C 15.5,109.667 16.5,109.333 17.5,109C 14.533,105.575 15.3663,103.409 20,102.5C 21.605,103.101 22.9384,104.101 24,105.5C 24.3333,105.167 24.6667,104.833 25,104.5C 26.669,106.169 27.5023,108.169 27.5,110.5 Z"/></g>
<g><path style="opacity:1" fill="#fd1f50" d="M 71.5,101.5 C 71.4226,102.75 70.756,103.583 69.5,104C 69.4106,105.716 69.7439,107.549 70.5,109.5C 68.2549,110.208 66.2549,111.208 64.5,112.5C 63.8333,112.5 63.1667,112.5 62.5,112.5C 61.365,111.526 60.365,110.359 59.5,109C 58.5509,108.383 57.7175,108.549 57,109.5C 56.6258,108.584 56.1258,107.75 55.5,107C 56.4158,106.722 57.0825,106.222 57.5,105.5C 57.4701,104.503 57.9701,103.836 59,103.5C 61.0094,103.995 63.1761,103.995 65.5,103.5C 65.281,102.325 65.6143,101.325 66.5,100.5C 68.0709,101.309 69.7376,101.643 71.5,101.5 Z"/></g>
</svg>
